HIERARCHY
ROOT Beta:Hips
{
	OFFSET 0.00 0.00 0.00
	CHANNELS 6 Xposition Yposition Zposition Yrotation Xrotation Zrotation
	JOINT Beta:Spine
	{
		OFFSET	0.0000	9.2263	1.5771
		CHANNELS 3 Xrotation Yrotation Zrotation
		JOINT Beta:Spine1
		{
			OFFSET	0.0000	16.2540	-0.1656
			CHANNELS 3 Xrotation Yrotation Zrotation
			JOINT Beta:Spine2
			{
				OFFSET	0.0000	13.6396	-1.2923
				CHANNELS 3 Xrotation Yrotation Zrotation
				JOINT Beta:Neck
				{
					OFFSET	0.0000	13.8774	-4.3542
					CHANNELS 3 Xrotation Yrotation Zrotation
					JOINT Beta:Neck1
					{
						OFFSET	0.0000	4.3400	0.9269
						CHANNELS 3 Xrotation Yrotation Zrotation
						JOINT Beta:Head
						{
							OFFSET	0.0000	4.0266	0.8585
							CHANNELS 3 Xrotation Yrotation Zrotation
							End Site
							{
								OFFSET 0.0000 23.0297 0.1231
							}
						}
					}
				}
				JOINT Beta:LeftShoulder
				{
					OFFSET	6.1442	10.1870	-3.7932
					CHANNELS 3 Zrotation Xrotation Yrotation
					JOINT Beta:LeftArm
					{
						OFFSET	12.3191	-1.1130	-1.7935
						CHANNELS 3 Zrotation Xrotation Yrotation
						JOINT Beta:LeftForeArm
						{
							OFFSET	27.6870	0.0000	0.0000
							CHANNELS 3 Xrotation Zrotation Yrotation
							JOINT Beta:LeftHand
							{
								OFFSET	27.8738	0.0000	0.0000
								CHANNELS 3 Zrotation Yrotation Xrotation
								JOINT Beta:LeftHandThumb1
								{
									OFFSET	2.3785	-1.0029	2.6209
									CHANNELS 3 Zrotation Xrotation Yrotation
									JOINT Beta:LeftHandThumb2
									{
										OFFSET	3.3624	-1.0029	2.8398
										CHANNELS 3 Zrotation Xrotation Yrotation
										JOINT Beta:LeftHandThumb3
										{
											OFFSET	4.5018	-1.3445	2.1783
											CHANNELS 3 Zrotation Xrotation Yrotation
											End Site
											{
												OFFSET 2.6000 -1.0000 1.0000
											}
										}
									}
								}
								JOINT Beta:LeftHandMiddle1
								{
									OFFSET	10.4639	0.6148	0.4298
									CHANNELS 3 Zrotation Xrotation Yrotation
									JOINT Beta:LeftHandMiddle2
									{
										OFFSET	5.7921	0.0000	0.0000
										CHANNELS 3 Zrotation Xrotation Yrotation
										JOINT Beta:LeftHandMiddle3
										{
											OFFSET	3.7132	0.0000	0.0000
											CHANNELS 3 Zrotation Xrotation Yrotation
											End Site
											{
												OFFSET 2.3000 0.0000 0.0000
											}
										}
									}
								}
								JOINT Beta:LeftHandIndex1
								{
									OFFSET	10.3945	0.6148	2.7055
									CHANNELS 3 Zrotation Xrotation Yrotation
									JOINT Beta:LeftHandIndex2
									{
										OFFSET	5.5493	0.0000	0.0000
										CHANNELS 3 Zrotation Xrotation Yrotation
										JOINT Beta:LeftHandIndex3
										{
											OFFSET	3.3911	0.0000	0.0000
											CHANNELS 3 Zrotation Xrotation Yrotation
											End Site
											{
												OFFSET 2.5000 0.0000 0.0000
											}
										}
									}
								}
								JOINT Beta:LeftHandRing1
								{
									OFFSET	10.3252	0.3211	-1.8755
									CHANNELS 3 Zrotation Xrotation Yrotation
									JOINT Beta:LeftHandRing2
									{
										OFFSET	5.4452	0.0000	0.0000
										CHANNELS 3 Zrotation Xrotation Yrotation
										JOINT Beta:LeftHandRing3
										{
											OFFSET	3.7132	0.0000	0.0000
											CHANNELS 3 Zrotation Xrotation Yrotation
											End Site
											{
												OFFSET 2.0000 0.0000 0.0000
											}
										}
									}
								}
								JOINT Beta:LeftHandPinky1
								{
									OFFSET	10.0130	-0.0783	-3.9671
									CHANNELS 3 Zrotation Xrotation Yrotation
									JOINT Beta:LeftHandPinky2
									{
										OFFSET	3.6763	0.0000	0.0000
										CHANNELS 3 Zrotation Xrotation Yrotation
										JOINT Beta:LeftHandPinky3
										{
											OFFSET	2.8113	0.0000	0.0000
											CHANNELS 3 Zrotation Xrotation Yrotation
											End Site
											{
												OFFSET 2.9000 0.0000 0.0000
											}
										}
									}
								}
							}
						}
					}
				}
				JOINT Beta:RightShoulder
				{
					OFFSET	-6.1402	10.1870	-3.7932
					CHANNELS 3 Zrotation Xrotation Yrotation
					JOINT Beta:RightArm
					{
						OFFSET	-12.3231	-1.1130	-1.7935
						CHANNELS 3 Zrotation Xrotation Yrotation
						JOINT Beta:RightForeArm
						{
							OFFSET	-27.6870	0.0000	0.0000
							CHANNELS 3 Xrotation Zrotation Yrotation
							JOINT Beta:RightHand
							{
								OFFSET	-27.8738	0.0000	0.0000
								CHANNELS 3 Zrotation Yrotation Xrotation
								JOINT Beta:RightHandThumb1
								{
									OFFSET	-2.5178	-0.9367	2.5137
									CHANNELS 3 Zrotation Xrotation Yrotation
									JOINT Beta:RightHandThumb2
									{
										OFFSET	-3.2638	-1.0870	2.9669
										CHANNELS 3 Zrotation Xrotation Yrotation
										JOINT Beta:RightHandThumb3
										{
											OFFSET	-4.4165	-1.3703	2.1350
											CHANNELS 3 Zrotation Xrotation Yrotation
											End Site
											{
												OFFSET -2.6000 -1.0000 1.0000
											}
										}
									}
								}
								JOINT Beta:RightHandIndex1
								{
									OFFSET	-10.4665	0.4896	2.7120
									CHANNELS 3 Zrotation Xrotation Yrotation
									JOINT Beta:RightHandIndex2
									{
										OFFSET	-5.3768	0.0000	0.0000
										CHANNELS 3 Zrotation Xrotation Yrotation
										JOINT Beta:RightHandIndex3
										{
											OFFSET	-3.3855	0.0000	0.0000
											CHANNELS 3 Zrotation Xrotation Yrotation
											End Site
											{
												OFFSET -2.6000 0.0000 0.0000
											}
										}
									}
								}
								JOINT Beta:RightHandMiddle1
								{
									OFFSET	-10.7596	0.4896	0.4278
									CHANNELS 3 Zrotation Xrotation Yrotation
									JOINT Beta:RightHandMiddle2
									{
										OFFSET	-5.6168	0.0000	0.0000
										CHANNELS 3 Zrotation Xrotation Yrotation
										JOINT Beta:RightHandMiddle3
										{
											OFFSET	-3.7364	0.0000	0.0000
											CHANNELS 3 Zrotation Xrotation Yrotation
											End Site
											{
												OFFSET -2.3000 0.0000 0.0000
											}
										}
									}
								}
								JOINT Beta:RightHandRing1
								{
									OFFSET	-10.4702	0.3879	-1.9363
									CHANNELS 3 Zrotation Xrotation Yrotation
									JOINT Beta:RightHandRing2
									{
										OFFSET	-5.4013	0.0000	0.0000
										CHANNELS 3 Zrotation Xrotation Yrotation
										JOINT Beta:RightHandRing3
										{
											OFFSET	-3.3916	0.0000	0.0000
											CHANNELS 3 Zrotation Xrotation Yrotation
											End Site
											{
												OFFSET -2.2000 0.0000 0.0000
											}
										}
									}
								}
								JOINT Beta:RightHandPinky1
								{
									OFFSET	-9.9715	-0.1191	-3.9540
									CHANNELS 3 Zrotation Xrotation Yrotation
									JOINT Beta:RightHandPinky2
									{
										OFFSET	-3.6528	0.0000	0.0000
										CHANNELS 3 Zrotation Xrotation Yrotation
										JOINT Beta:RightHandPinky3
										{
											OFFSET	-2.7820	0.0000	0.0000
											CHANNELS 3 Zrotation Xrotation Yrotation
											End Site
											{
												OFFSET -2.9000 0.0000 0.0000
											}
										}
									}
								}
							}
						}
					}
				}
			}
		}
	}
	JOINT Beta:LeftUpLeg
	{
		OFFSET	9.6338	-3.2733	0.0000
		CHANNELS 3 Xrotation Yrotation Zrotation
		JOINT Beta:LeftLeg
		{
			OFFSET	0.0000	-41.7300	-1.7300
			CHANNELS 3 Xrotation Yrotation Zrotation
			JOINT Beta:LeftFoot
			{
				OFFSET	0.0126	-39.1900	-0.8477
				CHANNELS 3 Xrotation Yrotation Zrotation
				JOINT Beta:LeftToeBase
				{
					OFFSET	-0.1833	-12.1931	8.2823
					CHANNELS 3 Xrotation Yrotation Zrotation
					End Site
					{
						OFFSET 0.0000 0.0000 10.1681
					}
				}
			}
		}
	}
	JOINT Beta:RightUpLeg
	{
		OFFSET	-9.6338	-3.2733	0.0000
		CHANNELS 3 Xrotation Yrotation Zrotation
		JOINT Beta:RightLeg
		{
			OFFSET	0.0000	-41.7300	-1.7300
			CHANNELS 3 Xrotation Yrotation Zrotation
			JOINT Beta:RightFoot
			{
				OFFSET	0.0126	-39.1900	-0.8477
				CHANNELS 3 Xrotation Yrotation Zrotation
				JOINT Beta:RightToeBase
				{
					OFFSET	-0.1833	-12.1931	8.2823
					CHANNELS 3 Xrotation Yrotation Zrotation
					End Site
					{
						OFFSET 0.0032 0.0000 10.1681
					}
				}
			}
		}
	}
}
MOTION
Frames: 6
Frame Time: 0.0333333
-0.0000 94.4341 0.0000 -66.1717 4.7217 0.2000 5.9893 7.2478 -1.0664 4.2070 4.7506 -0.4077 4.1805 4.7770 -0.3878 4.7515 5.6010 1.8998 -0.0000 0.0000 -0.0000 -4.9978 35.1561 -7.3686 -7.5532 1.0078 2.1976 -66.0280 17.5360 -9.5706 -0.0000 -0.0000 -29.2214 1.9172 -11.5269 11.0396 21.1938 36.1341 -12.3699 -6.4860 1.2210 9.7025 -1.9597 -10.0000 3.4182 -31.7371 0.0000 -3.2210 -25.7852 -0.0000 -0.0000 -21.5805 -0.0000 0.0000 -15.7704 0.0740 -10.1952 -29.0215 -0.0000 -0.0000 -18.5920 -0.0000 -0.0000 -29.0061 0.0000 -1.3460 -31.9368 -0.0000 -0.0000 -33.7176 -0.0000 -0.0000 -25.2481 -0.0155 -0.4087 -22.9658 0.0000 -0.0000 -24.5767 0.0000 0.0000 9.7078 -1.5428 7.0094 51.6596 25.5900 18.7993 0.0000 0.0000 12.6022 -19.0947 -5.0939 11.1508 5.5542 6.6080 -7.3220 -17.4298 8.7556 3.6115 -11.2901 10.0000 10.5250 21.5652 0.0086 5.9157 12.0858 0.0000 -0.0000 12.3288 0.0000 0.0000 28.1930 0.0000 1.5048 18.6324 0.0000 0.0000 11.1567 0.0000 0.0000 30.6282 0.0000 -2.4177 23.3407 -0.0000 0.0000 19.7707 0.0000 -0.0000 33.5783 -0.0095 -0.1054 24.1875 -0.0000 -0.0000 16.0163 -0.0000 0.0000 -35.2043 -0.7841 2.5272 57.1324 -3.4284 0.0372 -3.2749 0.1844 -4.2768 -7.5734 -0.0000 -0.0000 -14.5418 -7.3199 2.8015 24.1100 2.2117 0.3039 -14.1578 0.5753 -5.0449 -8.0809 -0.0000 -0.0000 
-5.1755 94.3300 0.3355 -68.1011 5.1928 0.6951 5.8898 8.6236 -1.8848 4.0807 5.1098 -0.8908 4.0404 5.1460 -0.8769 4.7890 5.5970 1.8310 -0.0000 0.0000 -0.0000 -5.0118 35.0481 -7.0285 -7.4759 1.1708 3.6111 -65.5387 17.6254 -7.2188 0.0000 0.0000 -26.1157 1.2301 -7.3917 10.6408 21.1938 36.1341 -12.3699 -6.8452 1.8256 9.9699 -1.9464 -10.0000 3.3748 -32.0447 0.0000 -3.2003 -25.8603 0.0000 0.0000 -21.6565 0.0000 0.0000 -16.6645 0.0797 -10.1386 -29.0201 0.0000 0.0000 -18.5906 -0.0000 -0.0000 -29.3889 0.0000 -1.4670 -31.9142 -0.0000 -0.0000 -33.6947 0.0000 0.0000 -25.2910 -0.0155 -0.6713 -22.9719 0.0000 -0.0000 -24.5805 -0.0000 -0.0000 9.5387 -2.1639 7.5405 49.9909 25.1083 20.7131 -0.0000 0.0000 15.1434 -19.7908 -4.3632 9.1458 5.5542 6.6080 -7.3220 -17.7282 7.3483 3.4764 -10.7550 10.0000 9.3198 20.4463 0.0000 6.3558 12.0616 0.0000 0.0000 12.3045 0.0000 -0.0000 27.4979 -0.0000 1.8572 18.5916 -0.0000 0.0000 11.1159 -0.0000 -0.0000 29.8691 -0.0000 -2.3425 23.3872 -0.0000 -0.0000 19.8181 0.0000 0.0000 33.1445 -0.0000 0.1905 24.2407 0.0000 0.0000 16.0730 0.0000 0.0000 -36.8972 1.1610 -0.1121 44.4491 -1.3179 0.1154 -4.8334 0.3577 -5.4135 -6.9851 0.0000 0.0000 -10.2580 -7.1357 3.4714 21.5148 3.5113 0.4103 -16.1115 1.3755 -6.3587 -7.6060 -0.0000 -0.0000 
-10.5350 93.4912 0.7076 -70.5113 5.7569 0.2523 5.5213 10.5914 -1.7320 3.8050 5.5801 -1.0575 3.7433 5.6251 -1.0592 4.7617 5.6063 1.5388 -0.0000 0.0000 -0.0000 -4.9590 35.0553 -7.3419 -7.4898 1.2896 4.9561 -65.4510 17.4996 -3.9317 -0.0000 0.0000 -24.2114 0.4683 -3.1174 11.3747 21.1938 36.1341 -12.3699 -7.4274 2.7161 10.1764 -1.9192 -10.0000 3.2860 -32.7711 0.0000 -3.1961 -25.9532 0.0000 -0.0000 -21.7503 0.0000 0.0000 -18.3105 0.0724 -10.2075 -28.9804 0.0000 -0.0000 -18.5504 0.0000 -0.0000 -30.0005 0.0000 -1.6849 -31.8809 0.0000 -0.0000 -33.6609 0.0000 -0.0000 -25.6604 -0.0155 -1.1927 -22.9894 0.0000 0.0000 -24.6091 0.0000 0.0000 9.3971 -2.6366 8.1901 47.6609 25.5894 22.1942 0.0000 0.0000 17.8297 -20.6145 -4.2233 6.9260 5.5542 6.6080 -7.3220 -17.7868 5.6911 3.7095 -10.5388 10.0000 8.7900 20.2336 -0.0000 6.4977 12.0501 0.0000 0.0000 12.2933 0.0000 -0.0000 27.2455 -0.0000 2.0500 18.5680 0.0000 -0.0000 11.0923 -0.0000 -0.0000 29.4942 0.0000 -2.2548 23.3953 -0.0000 -0.0000 19.8269 0.0000 -0.0000 32.9144 -0.0000 0.6247 24.2076 0.0000 -0.0000 16.0403 0.0000 0.0000 -36.9378 1.6365 -1.3064 28.3926 -0.2999 0.1562 -4.7192 0.4787 -6.9905 -6.7919 -0.0000 -0.0000 -6.5789 -7.6363 4.6557 20.8052 6.0688 0.4713 -19.1036 2.5225 -8.2254 -7.2233 -0.0000 -0.0000 
-16.2024 92.0324 1.0177 -74.4834 5.9563 -0.8709 5.2423 13.8864 -1.3820 3.5322 6.1167 -0.9182 3.4580 6.1618 -0.9433 4.5562 5.6462 1.3074 -0.0000 0.0000 -0.0000 -4.7110 35.3741 -8.1780 -7.5732 1.3495 6.1604 -66.0213 16.7725 0.0622 0.0000 0.0000 -23.4742 -0.1679 1.2900 12.1595 21.1938 36.1341 -12.3699 -7.8190 3.6031 9.7562 -1.8910 -10.0000 3.1943 -33.3265 0.0000 -3.1709 -25.9717 -0.0000 0.0000 -21.7690 0.0000 -0.0000 -19.6912 0.0569 -10.3416 -28.9365 0.0000 -0.0000 -18.5061 0.0000 0.0000 -30.3332 0.0000 -1.8293 -31.7920 -0.0000 0.0000 -33.5707 0.0000 -0.0000 -26.1170 -0.0155 -1.7233 -23.0155 0.0000 -0.0000 -24.6347 0.0000 -0.0000 9.3783 -2.8881 9.0263 44.4133 27.1258 24.0763 0.0000 0.0000 20.2808 -21.5924 -4.3064 5.4795 5.5542 6.6080 -7.3220 -17.8310 3.6377 4.3472 -10.2466 10.0000 8.0883 19.6564 -0.0000 6.6845 12.0418 -0.0000 -0.0000 12.2857 0.0000 -0.0000 26.6038 0.0000 2.2534 18.5562 -0.0000 -0.0000 11.0803 0.0000 0.0000 28.7332 0.0000 -2.1312 23.3722 0.0000 0.0000 19.8045 0.0000 -0.0000 32.5975 -0.0000 1.1640 24.1122 0.0000 -0.0000 15.9428 -0.0000 0.0000 -35.9119 1.3921 -0.6100 11.7637 0.7305 0.1887 -4.2574 0.4092 -7.5281 -7.1769 -0.0000 -0.0000 -2.6468 -8.4322 5.7877 21.2677 8.2366 0.5808 -22.7046 6.4282 -9.8285 -7.4100 0.0000 0.0000 
-22.2337 89.9763 1.2267 -79.2463 5.9080 -2.2605 4.8185 17.5412 -1.0961 3.2447 6.6931 -0.7078 3.1726 6.7320 -0.7694 4.2687 5.7261 1.3681 -0.0000 0.0000 -0.0000 -4.4536 36.0303 -8.7764 -7.5981 1.3532 7.0062 -66.9062 15.5397 3.2186 -0.0000 0.0000 -21.7808 -0.5221 4.4880 12.2476 21.1938 36.1341 -12.3699 -7.8228 4.3320 8.6131 -1.8723 -10.0000 3.1338 -33.2224 0.0000 -3.0802 -25.8395 0.0000 0.0000 -21.6353 0.0000 -0.0000 -20.0249 0.0486 -10.4166 -28.8618 0.0000 -0.0000 -18.4307 0.0000 0.0000 -30.0252 0.0000 -1.7810 -31.6334 0.0000 0.0000 -33.4098 0.0000 0.0000 -26.3111 -0.0155 -2.0398 -23.0471 0.0000 0.0000 -24.6426 0.0000 -0.0000 9.5224 -2.9084 9.8594 40.3390 29.3258 27.1205 0.0000 0.0000 22.1232 -22.1591 -3.7867 4.5659 5.5542 6.6080 -7.3220 -17.9134 1.9865 5.4768 -9.7493 10.0000 7.1355 18.4503 0.0000 6.9173 12.0329 -0.0000 0.0000 12.2777 0.0000 -0.0000 25.5082 0.0000 2.4177 18.5486 -0.0000 -0.0000 11.0728 -0.0000 0.0000 27.5631 -0.0000 -1.9814 23.3116 -0.0000 0.0000 19.7444 0.0000 -0.0000 32.1654 -0.0000 1.5645 23.9850 -0.0000 -0.0000 15.8114 0.0000 -0.0000 -39.0275 1.9351 1.5573 7.0373 2.5657 0.2649 -9.3229 0.8541 -8.9992 -7.6076 0.0000 -0.0000 1.7019 -9.2424 6.3902 22.2970 9.3576 0.7293 -26.9714 12.3502 -10.6794 -8.0200 -0.0000 -0.0000 
-28.0151 88.1143 1.2583 -83.2287 5.7785 -3.3590 4.8482 20.4587 -0.9983 3.1574 7.1286 -0.6131 3.0807 7.1671 -0.6853 3.9062 5.8422 1.3202 -0.0000 0.0000 -0.0000 -4.8809 36.6876 -8.8294 -7.5794 1.3150 7.4051 -67.3443 14.4284 4.2001 -0.0000 0.0000 -17.6020 -0.5169 5.3931 11.6636 21.1938 36.1341 -12.3699 -7.7711 4.9162 7.6494 -1.8616 -10.0000 3.0989 -32.5573 -0.0000 -2.9037 -25.6210 0.0000 -0.0000 -21.4143 -0.0000 0.0000 -19.6168 0.0538 -10.3628 -28.7535 0.0000 -0.0000 -18.3211 0.0000 0.0000 -29.3128 -0.0000 -1.6111 -31.4700 0.0000 -0.0000 -33.2441 0.0000 0.0000 -25.9970 -0.0155 -2.0472 -23.0821 -0.0000 -0.0000 -24.6737 -0.0000 0.0000 9.7374 -2.7550 10.3865 36.4867 31.3275 31.1292 0.0000 -0.0000 23.0604 -21.8194 -1.9968 3.6194 5.5542 6.6080 -7.3220 -17.7459 2.4196 6.7822 -9.4130 10.0000 6.8962 17.9811 0.0000 6.6946 12.0305 0.0000 0.0000 12.2757 -0.0000 0.0000 25.0447 0.0000 2.3155 18.5582 -0.0000 -0.0000 11.0824 -0.0000 0.0000 26.9636 0.0000 -1.8455 23.2072 0.0000 -0.0000 19.6399 0.0000 0.0000 32.0249 -0.0000 1.7054 23.8228 0.0000 -0.0000 15.6424 -0.0000 0.0000 -42.8014 1.8439 3.6117 10.0236 5.4330 0.3730 -13.9078 1.7832 -12.6908 -7.0402 -0.0000 0.0000 7.6808 -9.7318 6.5710 19.4536 9.1574 0.9370 -29.5386 18.5511 -10.3324 -8.8631 -0.0000 -0.0000 
